<svg width="72" height="53" viewBox="0 0 72 53" fill="none" xmlns="http://www.w3.org/2000/svg">
<rect x="0.504883" width="4.95283" height="33.0189" fill="#004368"/>
<rect x="14.5381" width="4.95283" height="33.0189" fill="#004368"/>
<rect x="28.5713" width="4.95283" height="33.0189" fill="#004368"/>
<rect x="38.4766" y="33.019" width="4.95283" height="33.0188" transform="rotate(-90 38.4766 33.019)" fill="#004368"/>
<rect x="38.4766" y="18.9858" width="4.95283" height="33.0188" transform="rotate(-90 38.4766 18.9858)" fill="#004368"/>
<rect x="38.4766" y="4.95312" width="4.95283" height="33.0188" transform="rotate(-90 38.4766 4.95312)" fill="#004368"/>
<path d="M0.838364 52.019V40.2555H8.81572V41.6819H2.49371V45.2568H7.16037V46.6832H2.49371V50.5926H8.81572V52.019H0.838364ZM15.6376 52.019L11.6048 40.2555H13.4187L16.6061 50.0819L19.8111 40.2555H21.625L17.5747 52.019H15.6376ZM25.0742 52.019V40.2555H33.0516V41.6819H26.7295V45.2568H31.3962V46.6832H26.7295V50.5926H33.0516V52.019H25.0742ZM37.003 52.019V40.2555H39.4508L44.8042 50.258V40.2555H46.4596V52.019H44.0294L38.6583 41.9637V52.019H37.003ZM53.8285 52.019V41.6819H49.9191V40.2555H59.3933V41.6819H55.4839V52.019H53.8285ZM66.7124 52.2304C66.0667 52.2304 65.4386 52.1306 64.8281 51.931C64.2176 51.7314 63.6776 51.4262 63.208 51.0153C62.7501 50.6044 62.4155 50.0819 62.2042 49.448L63.7363 48.9901C63.8771 49.4128 64.1061 49.765 64.423 50.0467C64.74 50.3167 65.104 50.5163 65.5149 50.6455C65.9375 50.7746 66.3602 50.8392 66.7828 50.8392C67.2524 50.8392 67.6985 50.7629 68.1212 50.6102C68.5438 50.4576 68.8843 50.2287 69.1425 49.9234C69.4126 49.6065 69.5476 49.2132 69.5476 48.7436C69.5476 48.2622 69.3715 47.8807 69.0193 47.5989C68.6671 47.3172 68.0566 47.0647 67.1878 46.8417L65.691 46.5071C65.1509 46.3662 64.6168 46.1784 64.0885 45.9436C63.5719 45.7088 63.1434 45.3742 62.8029 44.9398C62.4742 44.5054 62.3098 43.9243 62.3098 43.1964C62.3098 42.5272 62.5153 41.9578 62.9262 41.4882C63.3488 41.0186 63.8889 40.6606 64.5463 40.414C65.2155 40.1675 65.9082 40.0442 66.6243 40.0442C67.1761 40.0442 67.7161 40.1264 68.2444 40.2907C68.7845 40.4434 69.2658 40.684 69.6885 41.0128C70.1228 41.3297 70.4633 41.7406 70.7098 42.2455L69.1954 42.6857C68.9723 42.2748 68.6084 41.9637 68.1036 41.7524C67.6105 41.5411 67.0939 41.4354 66.5539 41.4354C66.1312 41.4354 65.7262 41.5058 65.3388 41.6467C64.9513 41.7759 64.6344 41.9754 64.3878 42.2455C64.1413 42.5155 64.018 42.8559 64.018 43.2668C64.018 43.6543 64.1295 43.9654 64.3526 44.2002C64.5874 44.435 64.8926 44.6228 65.2683 44.7637C65.6558 44.8928 66.0784 45.0102 66.5363 45.1159L67.8218 45.3977C68.4205 45.5385 68.9841 45.7323 69.5124 45.9788C70.0407 46.2253 70.4692 46.5717 70.7979 47.0178C71.1266 47.4639 71.291 48.0627 71.291 48.814C71.291 49.3541 71.1618 49.8413 70.9035 50.2756C70.6453 50.6983 70.2989 51.0564 69.8646 51.3499C69.4302 51.6316 68.9371 51.8488 68.3853 52.0014C67.8453 52.1541 67.2876 52.2304 66.7124 52.2304Z" fill="#004368"/>
</svg>
